<?xml version="1.0" encoding="UTF-8"?>
<svg width="640" height="360" viewBox="0 0 640 360" fill="none" xmlns="http://www.w3.org/2000/svg">
  <rect width="640" height="360" fill="#1A1E23"/>
  <rect width="640" height="360" fill="url(#paint0_linear)"/>
  <g opacity="0.7">
    <path d="M320 180C351.867 180 377.799 154.117 377.799 122.308C377.799 90.4992 351.867 64.6154 320 64.6154C288.133 64.6154 262.201 90.4992 262.201 122.308C262.201 154.117 288.133 180 320 180Z" fill="#10B981"/>
    <path d="M320 226.154C244.799 226.154 184 247.904 184 274.615C184 301.327 244.799 323.077 320 323.077C395.201 323.077 456 301.327 456 274.615C456 247.904 395.201 226.154 320 226.154Z" fill="#065F46"/>
    <path d="M347.6 133.846C347.6 126.712 347.6 123.077 345.5 123.077C343.4 123.077 342.35 126.712 340.25 133.846L329.9 163.077C327.8 170.212 326.75 173.846 329.9 173.846C333.05 173.846 333.05 170.212 333.05 163.077V133.846C333.05 126.712 333.05 123.077 336.2 123.077C339.35 123.077 339.35 126.712 341.45 133.846L347.6 153.462C349.7 160.596 350.75 164.231 347.6 164.231C344.45 164.231 343.4 160.596 341.45 153.462L340.25 148.673" stroke="white" stroke-width="4" stroke-linecap="round" stroke-linejoin="round"/>
    <path d="M292.4 133.846C292.4 126.712 292.4 123.077 294.5 123.077C296.6 123.077 297.65 126.712 299.75 133.846L310.1 163.077C312.2 170.212 313.25 173.846 310.1 173.846C306.95 173.846 306.95 170.212 306.95 163.077V133.846C306.95 126.712 306.95 123.077 303.8 123.077C300.65 123.077 300.65 126.712 298.55 133.846L292.4 153.462C290.3 160.596 289.25 164.231 292.4 164.231C295.55 164.231 296.6 160.596 298.55 153.462L299.75 148.673" stroke="white" stroke-width="4" stroke-linecap="round" stroke-linejoin="round"/>
  </g>
  <defs>
    <linearGradient id="paint0_linear" x1="320" y1="0" x2="320" y2="360" gradientUnits="userSpaceOnUse">
      <stop stop-color="#111827" stop-opacity="0.8"/>
      <stop offset="1" stop-color="#030712" stop-opacity="0.9"/>
    </linearGradient>
  </defs>
</svg>